<mxfile host="app.diagrams.net" agent="Mozilla/5.0 (Windows NT 10.0; Win64; x64) AppleWebKit/537.36 (KHTML, like Gecko) Chrome/128.0.0.0 Safari/537.36 Edg/128.0.0.0" version="24.7.10" pages="2">
  <diagram name="第 1 页" id="oYf67Po-0_MQzl7CCFFB">
    <mxGraphModel dx="746" dy="478" grid="1" gridSize="10" guides="1" tooltips="1" connect="1" arrows="1" fold="1" page="1" pageScale="1" pageWidth="827" pageHeight="1169" math="0" shadow="0">
      <root>
        <mxCell id="0" />
        <mxCell id="1" parent="0" />
        <mxCell id="9jeipukype3jACOXYYOK-14" value="" style="rounded=0;whiteSpace=wrap;html=1;fillColor=#f5f5f5;fontColor=#333333;strokeColor=#666666;" vertex="1" parent="1">
          <mxGeometry x="40" y="40" width="720" height="400" as="geometry" />
        </mxCell>
        <mxCell id="9jeipukype3jACOXYYOK-5" value="" style="triangle;whiteSpace=wrap;html=1;rotation=-90;fillColor=#d5e8d4;strokeColor=#82b366;" vertex="1" parent="1">
          <mxGeometry x="245" y="45" width="310" height="360" as="geometry" />
        </mxCell>
        <mxCell id="9jeipukype3jACOXYYOK-6" value="" style="edgeStyle=orthogonalEdgeStyle;rounded=0;orthogonalLoop=1;jettySize=auto;html=1;" edge="1" parent="1" source="9jeipukype3jACOXYYOK-1" target="9jeipukype3jACOXYYOK-2">
          <mxGeometry relative="1" as="geometry" />
        </mxCell>
        <mxCell id="9jeipukype3jACOXYYOK-1" value="&lt;font style=&quot;font-size: 16px;&quot;&gt;研发管理&lt;/font&gt;" style="ellipse;whiteSpace=wrap;html=1;aspect=fixed;fillColor=#dae8fc;strokeColor=#6c8ebf;" vertex="1" parent="1">
          <mxGeometry x="120" y="200" width="80" height="80" as="geometry" />
        </mxCell>
        <mxCell id="9jeipukype3jACOXYYOK-7" value="" style="edgeStyle=orthogonalEdgeStyle;rounded=0;orthogonalLoop=1;jettySize=auto;html=1;" edge="1" parent="1" source="9jeipukype3jACOXYYOK-2" target="9jeipukype3jACOXYYOK-3">
          <mxGeometry relative="1" as="geometry" />
        </mxCell>
        <mxCell id="9jeipukype3jACOXYYOK-2" value="&lt;font style=&quot;font-size: 16px;&quot;&gt;交付管理&lt;/font&gt;" style="ellipse;whiteSpace=wrap;html=1;aspect=fixed;fillColor=#dae8fc;strokeColor=#6c8ebf;" vertex="1" parent="1">
          <mxGeometry x="280" y="200" width="80" height="80" as="geometry" />
        </mxCell>
        <mxCell id="9jeipukype3jACOXYYOK-8" value="" style="edgeStyle=orthogonalEdgeStyle;rounded=0;orthogonalLoop=1;jettySize=auto;html=1;" edge="1" parent="1" source="9jeipukype3jACOXYYOK-3" target="9jeipukype3jACOXYYOK-4">
          <mxGeometry relative="1" as="geometry" />
        </mxCell>
        <mxCell id="9jeipukype3jACOXYYOK-3" value="&lt;font style=&quot;font-size: 16px;&quot;&gt;数据运维&lt;/font&gt;" style="ellipse;whiteSpace=wrap;html=1;aspect=fixed;fillColor=#dae8fc;strokeColor=#6c8ebf;" vertex="1" parent="1">
          <mxGeometry x="440" y="200" width="80" height="80" as="geometry" />
        </mxCell>
        <mxCell id="9jeipukype3jACOXYYOK-4" value="&lt;font style=&quot;font-size: 16px;&quot;&gt;价值运营&lt;/font&gt;" style="ellipse;whiteSpace=wrap;html=1;aspect=fixed;fillColor=#dae8fc;strokeColor=#6c8ebf;" vertex="1" parent="1">
          <mxGeometry x="600" y="200" width="80" height="80" as="geometry" />
        </mxCell>
        <mxCell id="9jeipukype3jACOXYYOK-9" value="&lt;font style=&quot;font-size: 16px;&quot;&gt;业务需求&lt;/font&gt;" style="text;html=1;align=center;verticalAlign=middle;resizable=0;points=[];autosize=1;strokeColor=none;fillColor=none;" vertex="1" parent="1">
          <mxGeometry x="30" y="225" width="90" height="30" as="geometry" />
        </mxCell>
        <mxCell id="9jeipukype3jACOXYYOK-10" value="&lt;font style=&quot;font-size: 16px;&quot;&gt;业务价值&lt;/font&gt;" style="text;html=1;align=center;verticalAlign=middle;resizable=0;points=[];autosize=1;strokeColor=none;fillColor=none;" vertex="1" parent="1">
          <mxGeometry x="680" y="225" width="90" height="30" as="geometry" />
        </mxCell>
        <mxCell id="9jeipukype3jACOXYYOK-11" value="&lt;font style=&quot;font-size: 16px;&quot;&gt;组织管理&lt;/font&gt;" style="text;html=1;align=center;verticalAlign=middle;resizable=0;points=[];autosize=1;strokeColor=none;fillColor=none;" vertex="1" parent="1">
          <mxGeometry x="355" y="140" width="90" height="30" as="geometry" />
        </mxCell>
        <mxCell id="9jeipukype3jACOXYYOK-12" value="&lt;font style=&quot;font-size: 16px;&quot;&gt;系统工具&lt;/font&gt;" style="text;html=1;align=center;verticalAlign=middle;resizable=0;points=[];autosize=1;strokeColor=none;fillColor=none;" vertex="1" parent="1">
          <mxGeometry x="260" y="340" width="90" height="30" as="geometry" />
        </mxCell>
        <mxCell id="9jeipukype3jACOXYYOK-13" value="&lt;font style=&quot;font-size: 16px;&quot;&gt;安全管控&lt;/font&gt;" style="text;html=1;align=center;verticalAlign=middle;resizable=0;points=[];autosize=1;strokeColor=none;fillColor=none;" vertex="1" parent="1">
          <mxGeometry x="430" y="340" width="90" height="30" as="geometry" />
        </mxCell>
      </root>
    </mxGraphModel>
  </diagram>
  <diagram id="3ukdWLKmUzqrr41clT2K" name="第 2 页">
    <mxGraphModel dx="746" dy="478" grid="1" gridSize="10" guides="1" tooltips="1" connect="1" arrows="1" fold="1" page="1" pageScale="1" pageWidth="827" pageHeight="1169" math="0" shadow="0">
      <root>
        <mxCell id="0" />
        <mxCell id="1" parent="0" />
        <mxCell id="-RwJCCya-YVBPY1N3eDt-1" value="数据研发管理" style="rounded=1;whiteSpace=wrap;html=1;" vertex="1" parent="1">
          <mxGeometry x="40" y="40" width="280" height="30" as="geometry" />
        </mxCell>
        <mxCell id="-RwJCCya-YVBPY1N3eDt-2" value="数据交付管理" style="rounded=1;whiteSpace=wrap;html=1;" vertex="1" parent="1">
          <mxGeometry x="530" y="40" width="80" height="40" as="geometry" />
        </mxCell>
        <mxCell id="-RwJCCya-YVBPY1N3eDt-3" value="数据运维" style="rounded=1;whiteSpace=wrap;html=1;" vertex="1" parent="1">
          <mxGeometry x="690" y="40" width="80" height="40" as="geometry" />
        </mxCell>
        <mxCell id="-RwJCCya-YVBPY1N3eDt-4" value="价值运营" style="rounded=1;whiteSpace=wrap;html=1;" vertex="1" parent="1">
          <mxGeometry x="850" y="40" width="80" height="40" as="geometry" />
        </mxCell>
        <mxCell id="-RwJCCya-YVBPY1N3eDt-5" value="需求管理" style="rounded=1;whiteSpace=wrap;html=1;" vertex="1" parent="1">
          <mxGeometry x="40" y="90" width="280" height="30" as="geometry" />
        </mxCell>
        <mxCell id="-RwJCCya-YVBPY1N3eDt-6" value="配置管理" style="rounded=1;whiteSpace=wrap;html=1;" vertex="1" parent="1">
          <mxGeometry x="530" y="120" width="80" height="40" as="geometry" />
        </mxCell>
        <mxCell id="-RwJCCya-YVBPY1N3eDt-7" value="监控&lt;span style=&quot;color: rgba(0, 0, 0, 0); font-family: monospace; font-size: 0px; text-align: start; text-wrap: nowrap;&quot;&gt;%3CmxGraphModel%3E%3Croot%3E%3CmxCell%20id%3D%220%22%2F%3E%3CmxCell%20id%3D%221%22%20parent%3D%220%22%2F%3E%3CmxCell%20id%3D%222%22%20value%3D%22%E9%85%8D%E7%BD%AE%E7%AE%A1%E7%90%86%22%20style%3D%22rounded%3D1%3BwhiteSpace%3Dwrap%3Bhtml%3D1%3B%22%20vertex%3D%221%22%20parent%3D%221%22%3E%3CmxGeometry%20x%3D%22200%22%20y%3D%22120%22%20width%3D%2280%22%20height%3D%2240%22%20as%3D%22geometry%22%2F%3E%3C%2FmxCell%3E%3C%2Froot%3E%3C%2FmxGraphModel%3E&lt;/span&gt;管理" style="rounded=1;whiteSpace=wrap;html=1;" vertex="1" parent="1">
          <mxGeometry x="690" y="120" width="80" height="40" as="geometry" />
        </mxCell>
        <mxCell id="-RwJCCya-YVBPY1N3eDt-8" value="成本管理" style="rounded=1;whiteSpace=wrap;html=1;" vertex="1" parent="1">
          <mxGeometry x="850" y="120" width="80" height="40" as="geometry" />
        </mxCell>
        <mxCell id="-RwJCCya-YVBPY1N3eDt-9" value="采集-》分析-》确认-》实施-》变更" style="rounded=1;whiteSpace=wrap;html=1;" vertex="1" parent="1">
          <mxGeometry x="40" y="140" width="280" height="30" as="geometry" />
        </mxCell>
        <mxCell id="-RwJCCya-YVBPY1N3eDt-10" value="设计管理" style="rounded=1;whiteSpace=wrap;html=1;" vertex="1" parent="1">
          <mxGeometry x="40" y="240" width="280" height="30" as="geometry" />
        </mxCell>
      </root>
    </mxGraphModel>
  </diagram>
</mxfile>
